TITLE "switch on"
PERFORMER "tamatomika"
CATALOG 4988023044996
REM GENRE "Jazz+Funk"
REM DISCID 1A02E903
FILE "switch on.flac" WAVE
  TRACK 01 AUDIO
    TITLE "かみあわない男"
    ISRC JPH900800010
    INDEX 01 00:00:00
  TRACK 02 AUDIO
    TITLE "Ohana"
    ISRC JPH900800020
    INDEX 01 03:30:35
  TRACK 03 AUDIO
    TITLE "morado"
    ISRC JPH900800030
    INDEX 00 08:13:20
    INDEX 01 08:14:60
